<svg xmlns="http://www.w3.org/2000/svg" viewBox="0 0 100 125"><path d="M80.588 68.827c0-1.312-.457-2.422-1.372-3.339L69.02 55.292c-.916-.91-2.027-1.368-3.334-1.368-1.373 0-2.546.521-3.532 1.57.101.093.408.407.935.928.522.49.865.834 1.028 1.029.196.195.441.508.736.935.326.42.539.847.637 1.274.13.388.196.834.196 1.323 0 1.306-.458 2.416-1.372 3.332-.916.916-2.028 1.374-3.333 1.374-.49 0-.947-.05-1.374-.15a4.872 4.872 0 0 1-1.224-.634 40.675 40.675 0 0 1-.934-.734 82.492 82.492 0 0 0-1.08-1.08c-.49-.527-.784-.834-.878-.935-1.08 1.017-1.619 2.21-1.619 3.583 0 1.305.458 2.416 1.374 3.332l10.097 10.146c.882.885 1.993 1.324 3.333 1.324 1.307 0 2.419-.426 3.333-1.274l7.207-7.16c.915-.915 1.372-2.007 1.372-3.28M46.129 34.264c0-1.307-.458-2.418-1.374-3.333L34.653 20.785c-.91-.916-2.02-1.373-3.332-1.373-1.274 0-2.384.441-3.332 1.324l-7.203 7.157c-.916.915-1.374 2.01-1.374 3.284 0 1.307.458 2.418 1.374 3.334l10.196 10.196c.879.885 1.99 1.324 3.332 1.324 1.374 0 2.548-.509 3.526-1.52-.094-.098-.407-.393-.928-.883-.521-.522-.885-.882-1.08-1.078a32.188 32.188 0 0 1-.734-.932 4.935 4.935 0 0 1-.64-1.225 6.341 6.341 0 0 1-.144-1.373c0-1.307.458-2.418 1.374-3.333.91-.916 2.02-1.373 3.332-1.373.49 0 .929.066 1.324.195.42.097.847.311 1.274.637.426.295.734.54.928.735.201.164.54.507 1.03 1.03.527.523.834.833.934.931 1.08-1.013 1.62-2.205 1.62-3.578m39.753 24.559C88.627 61.565 90 64.903 90 68.825c0 3.921-1.39 7.234-4.167 9.951l-7.206 7.153c-2.712 2.717-6.029 4.073-9.95 4.073-3.956 0-7.288-1.393-9.999-4.167L48.576 75.683c-2.71-2.71-4.066-6.024-4.066-9.945 0-4.022 1.437-7.436 4.311-10.247l-4.31-4.317c-2.812 2.88-6.213 4.317-10.197 4.317-3.922 0-7.253-1.374-10.002-4.122L14.116 41.176c-2.742-2.745-4.116-6.08-4.116-10 0-3.922 1.387-7.24 4.166-9.952l7.204-7.156c2.716-2.713 6.03-4.07 9.951-4.07 3.953 0 7.291 1.39 10.002 4.167l10.096 10.148c2.717 2.712 4.072 6.029 4.072 9.95 0 4.02-1.437 7.435-4.317 10.246l4.317 4.312c2.811-2.873 6.206-4.312 10.195-4.312 3.922 0 7.255 1.37 10 4.118l10.197 10.196" fill="#965063"/></svg>