<svg width="165" height="70" xmlns="http://www.w3.org/2000/svg"><g fill="none" fill-rule="evenodd"><path d="M98.846 43h-3.32v-6.778h-6.22V43h-3.33V27.295h3.33v6.155h6.22v-6.155h3.32V43zm10.022 0h-3.33V30.066h-4.265v-2.771h11.86v2.771h-4.265V43zm13.331 0l-3.781-12.321h-.097c.136 2.506.204 4.178.204 5.016V43h-2.975V27.295h4.533l3.717 12.01h.064l3.943-12.01h4.533V43h-3.105v-7.434c0-.35.006-.755.016-1.213.011-.459.06-1.676.145-3.653h-.096L125.25 43h-3.05zm14.094 0V27.295h3.33V40.25h6.37V43h-9.7zm22.763-10.033c1.518 0 2.726.426 3.625 1.278.899.852 1.348 2.02 1.348 3.502 0 1.755-.54 3.105-1.622 4.05-1.081.945-2.628 1.418-4.64 1.418-1.748 0-3.159-.283-4.233-.849v-2.868c.566.3 1.225.546 1.977.736.752.19 1.464.285 2.137.285 2.027 0 3.04-.831 3.04-2.493 0-1.582-1.049-2.374-3.147-2.374-.38 0-.798.038-1.257.113-.458.075-.83.156-1.117.242l-1.321-.71.59-8.002h8.52v2.814h-5.608l-.29 3.083.376-.075c.436-.1.977-.15 1.622-.15z" fill="#333"/><g fill-rule="nonzero"><path fill="#677CA2" d="M5.549 62.19L0 0h61l-5.549 62.156-25.001 6.918"/><path fill="#7184A8" d="M30.5 63.691V5.382h25.118l-4.794 52.72"/><path d="M11.662 13.456H30.5v7.598H19.891l.694 7.781H30.5v7.581H13.71m.331 3.816h7.536l.528 6.074 8.395 2.276v7.933l-15.401-4.351" fill="#EBEBEB"/><path d="M49.338 13.456H30.5v7.603h18.143m-.679 7.788H30.5v7.604h9.27l-.877 9.881L30.5 48.61v7.905l15.395-4.321" fill="#FFF"/></g></g></svg>